<?xml version="1.0" standalone="no"?>
<!DOCTYPE svg PUBLIC "-//W3C//DTD SVG 20010904//EN"
 "http://www.w3.org/TR/2001/REC-SVG-20010904/DTD/svg10.dtd">
<svg version="1.0" xmlns="http://www.w3.org/2000/svg"
 width="918.000000pt" height="918.000000pt" viewBox="0 0 918.000000 918.000000"
 preserveAspectRatio="xMidYMid meet">
<metadata>
Created by potrace 1.11, written by Peter Selinger 2001-2013
</metadata>
<g transform="translate(0.000000,918.000000) scale(0.100000,-0.100000)"
fill="#000000" stroke="none">
<path d="M6080 8234 c-140 -86 -261 -161 -268 -168 -10 -10 30 -93 214 -435
124 -232 225 -423 223 -425 -2 -2 -213 142 -469 320 -255 177 -469 320 -475
316 -87 -52 -534 -337 -544 -347 -12 -12 48 -130 399 -787 227 -425 417 -780
421 -789 7 -14 -22 -36 -154 -120 -143 -91 -475 -304 -549 -353 l-28 -18 21
58 c81 233 62 546 -54 889 -86 253 -204 489 -370 737 -65 98 -122 180 -127
183 -7 4 -498 -294 -529 -321 -2 -2 48 -81 112 -176 253 -379 452 -782 493
-997 42 -221 -72 -281 -238 -124 -172 164 -352 463 -543 905 l-68 158 -67 -38
c-281 -157 -469 -269 -470 -277 -1 -30 159 -373 241 -518 283 -497 589 -796
869 -847 36 -7 76 -14 89 -16 22 -5 -56 -57 -564 -381 -38 -24 -200 -128 -360
-230 -322 -206 -344 -218 -355 -206 -4 4 -78 127 -165 273 -87 146 -170 286
-185 311 l-28 46 204 128 c112 71 204 131 204 135 0 3 -41 86 -91 184 -88 172
-91 177 -112 163 -12 -7 -101 -60 -197 -117 -96 -57 -185 -110 -197 -117 -21
-14 -24 -11 -73 73 -41 69 -49 89 -38 95 14 8 470 309 476 314 2 2 -47 102
-107 223 l-111 221 -182 -108 c-101 -59 -338 -199 -528 -310 -190 -112 -351
-209 -357 -215 -10 -9 86 -187 428 -796 242 -432 452 -807 466 -833 29 -58 52
-36 -192 -191 -229 -145 -250 -156 -303 -156 -54 0 -77 11 -447 228 -354 206
-457 261 -507 269 -41 6 -108 -4 -108 -16 0 -9 135 -90 652 -390 l348 -202 57
39 c88 60 533 342 538 342 7 0 475 300 605 387 139 94 897 577 1560 995 140
88 262 166 270 174 16 14 613 394 1012 644 127 80 250 159 273 176 49 37 333
218 355 227 8 3 161 100 340 216 179 115 495 319 702 453 208 134 384 247 391
252 10 6 46 -9 116 -49 56 -31 225 -123 376 -204 l273 -147 -600 -454 c-609
-462 -1240 -941 -1633 -1240 -119 -91 -410 -311 -645 -490 -235 -179 -638
-485 -895 -680 -257 -195 -547 -415 -644 -489 -97 -73 -338 -256 -536 -407
-198 -150 -560 -425 -805 -611 -245 -186 -557 -424 -695 -529 -137 -105 -259
-196 -270 -203 -18 -12 -96 35 -785 475 -883 563 -909 578 -918 569 -15 -15
47 -101 104 -144 50 -37 367 -240 1295 -830 237 -151 268 -166 348 -166 87 1
112 14 309 163 90 68 165 122 167 120 2 -2 11 -32 20 -68 49 -192 207 -370
380 -431 167 -59 330 -27 498 98 82 60 147 92 202 99 40 6 47 4 74 -24 63 -62
29 -139 -104 -240 -118 -88 -313 -177 -435 -197 -25 -4 -50 -10 -56 -14 -6 -3
44 -98 128 -238 l138 -231 67 15 c108 24 327 100 411 142 87 43 155 95 236
176 246 246 313 564 175 836 -124 248 -296 369 -503 357 -123 -8 -178 -32
-383 -174 -110 -75 -169 -94 -218 -71 -64 31 -59 108 12 187 88 98 213 179
384 250 l88 36 -71 117 c-68 112 -71 118 -52 131 10 8 54 41 98 75 43 34 82
61 86 61 4 0 227 -293 495 -650 268 -358 489 -650 492 -650 10 0 423 352 423
361 0 5 -190 310 -421 677 -232 367 -423 672 -426 678 -2 7 56 58 129 114
l133 101 8 -111 c21 -317 154 -613 365 -811 372 -352 897 -340 1282 27 165
158 292 370 326 546 l17 87 -277 355 c-152 195 -281 358 -286 361 -6 4 -97
-63 -203 -147 -105 -85 -245 -196 -310 -247 -65 -51 -116 -99 -114 -105 3 -8
184 -275 213 -314 1 -2 61 40 133 92 72 53 135 96 139 96 4 0 22 -24 41 -52
l34 -52 -28 -53 c-49 -93 -154 -172 -251 -187 -52 -7 -134 8 -194 36 -65 31
-169 140 -207 218 -143 292 2 591 370 766 42 20 77 39 77 42 0 3 -30 52 -66
109 -37 58 -63 108 -58 112 5 4 66 51 135 104 l126 96 484 -679 483 -679 36
27 c262 194 439 328 440 334 0 4 -127 199 -283 435 -331 501 -304 458 -286
448 18 -10 886 -553 915 -572 20 -13 36 0 283 223 151 136 260 242 257 249 -2
7 -197 299 -431 650 -235 350 -429 644 -432 654 -3 12 19 35 79 79 l83 62 7
-53 c22 -161 135 -340 275 -433 87 -57 172 -84 274 -84 121 0 197 25 316 106
132 90 183 114 238 114 80 0 118 -66 81 -138 -36 -69 -207 -195 -346 -254 -41
-17 -121 -43 -177 -58 l-101 -25 132 -223 c73 -123 137 -227 143 -233 21 -21
353 80 489 149 133 67 293 222 377 363 84 143 116 329 83 485 -10 44 -37 119
-62 169 -104 211 -259 335 -439 352 -120 11 -232 -28 -384 -136 -173 -123
-238 -145 -295 -100 -56 44 -21 141 85 231 103 87 219 154 366 209 l52 20 -80
132 c-78 127 -80 132 -61 147 11 8 95 73 187 145 189 145 225 188 225 264 0
94 -49 138 -301 273 -348 187 -362 193 -454 193 -92 -1 -116 -11 -294 -125
-363 -231 -584 -370 -586 -368 -2 2 -173 344 -381 760 l-379 758 -255 -156z
m14 -1516 c176 -145 321 -268 323 -274 4 -12 -279 -196 -304 -198 -11 -1 -72
114 -209 391 -169 344 -189 390 -161 368 18 -13 176 -143 351 -287z m794
-1777 c112 -156 202 -284 200 -286 -2 -1 -88 43 -193 97 -104 55 -263 138
-352 184 l-163 85 83 63 c45 34 107 81 137 104 30 23 62 41 70 40 8 -2 106
-131 218 -287z"/>
<path d="M7299 6807 c-327 -210 -788 -505 -1025 -656 -236 -151 -807 -516
-1269 -811 -462 -295 -1351 -863 -1975 -1262 -624 -399 -1160 -741 -1191 -761
l-55 -35 -489 284 c-269 156 -491 284 -494 284 -7 0 -434 -880 -429 -885 1 -1
347 -221 767 -489 l763 -486 157 118 c144 110 392 298 941 715 118 90 440 334
715 543 275 209 932 708 1460 1109 528 401 1327 1008 1775 1348 448 341 955
726 1127 856 172 130 311 240 310 245 -3 9 -473 267 -485 265 -4 0 -275 -172
-603 -382z"/>
<path d="M535 3658 c-207 -422 -295 -606 -295 -615 1 -13 34 53 242 481 109
225 197 410 195 412 -2 2 -66 -123 -142 -278z"/>
</g>
</svg>
